<?xml version="1.0" encoding="utf-8"?>
<!-- Generator: Adobe Illustrator 16.0.3, SVG Export Plug-In . SVG Version: 6.00 Build 0)  -->
<!DOCTYPE svg PUBLIC "-//W3C//DTD SVG 1.1//EN" "http://www.w3.org/Graphics/SVG/1.1/DTD/svg11.dtd">
<svg version="1.1" id="OBJECTS" xmlns="http://www.w3.org/2000/svg" xmlns:xlink="http://www.w3.org/1999/xlink" x="0px" y="0px"
	 width="570px" height="84px" viewBox="0 0 570 84" enable-background="new 0 0 570 84" xml:space="preserve">
<path fill="#174873" d="M112.117,75.22l-1.097-60.344l-1.081,59.411l-2.186,0.36c-1.021,0.112-2.038,0.246-3.058,0.343l-1.533,0.104
	c-0.511,0.034-1.021,0.078-1.533,0.078c-1.023,0.017-2.044,0.063-3.066,0.017c-0.511-0.015-1.021-0.02-1.532-0.041l-1.529-0.102
	l-0.764-0.052l-0.763-0.081L92.45,74.75c-1.015-0.146-2.029-0.269-3.042-0.454c-1.013-0.161-2.026-0.365-3.039-0.558l-3.053-0.639
	l-1.541-0.325c-0.516-0.108-1.029-0.218-1.555-0.318c-1.041-0.21-2.102-0.396-3.177-0.557l-0.814-0.105l-0.408-0.052l-0.204-0.026
	l-0.247-0.021l-0.782-0.06l-0.391-0.031c-0.129-0.01-0.258-0.021-0.407-0.021l-0.863-0.019c-0.287-0.003-0.582-0.019-0.857-0.002
	l-0.839,0.03l-0.419,0.016l-0.419,0.037l-0.839,0.076c-0.28,0.024-0.557,0.074-0.836,0.11c-0.532,0.065-1.059,0.171-1.587,0.275
	c0.7-0.306,1.411-0.58,2.127-0.841c0.443-0.145,0.889-0.31,1.331-0.431l0.663-0.197l0.699-0.174l0.35-0.087l0.087-0.022l0.07-0.014
	l0.17-0.033l0.68-0.132c0.225-0.051,0.458-0.069,0.688-0.104c0.23-0.03,0.459-0.064,0.69-0.09c0.928-0.083,1.862-0.14,2.804-0.129
	l0.706,0.003l0.708,0.025c0.472,0.01,0.946,0.047,1.419,0.074c0.473,0.029,0.948,0.073,1.423,0.109l1.427,0.133l2.868,0.287
	c0.959,0.096,1.924,0.178,2.892,0.244c0.482,0.036,0.978,0.051,1.466,0.078c0.243,0.009,0.481,0.011,0.722,0.017l0.36,0.007
	l0.18,0.003c0.079,0.003,0.128-0.002,0.194-0.002c0.991-0.016,1.978-0.075,2.95-0.212l0.73-0.098l0.723-0.128
	c0.483-0.079,0.959-0.188,1.437-0.291c0.479-0.099,0.947-0.23,1.421-0.345c0.469-0.13,0.939-0.256,1.404-0.397
	c0.932-0.278,1.853-0.589,2.767-0.919c0.914-0.336,1.81-0.689,2.713-1.093l0.317-0.142l-0.002-0.347l-0.356-61.519l-0.001-0.244
	l-0.236,0.072l-1.862,0.567c-0.312,0.089-0.618,0.2-0.934,0.272l-0.945,0.233l-0.946,0.233l-0.473,0.117
	c-0.158,0.037-0.318,0.064-0.477,0.097l-1.913,0.377c-0.318,0.068-0.64,0.113-0.961,0.164l-0.963,0.15l-0.964,0.15
	c-0.322,0.046-0.646,0.079-0.968,0.119c-0.646,0.075-1.291,0.159-1.938,0.226L90.431,8.04c-0.324,0.031-0.648,0.053-0.973,0.07
	l-0.975,0.058l-0.974,0.058l-0.976,0.034c-0.65,0.019-1.3,0.052-1.952,0.053c-0.651,0.004-1.302,0.023-1.953,0.016
	c-0.651-0.008-1.302-0.004-1.953-0.021c-0.651-0.02-1.302-0.027-1.952-0.06l-0.976-0.042L76.772,8.15
	c-0.65-0.04-1.299-0.087-1.948-0.147c0.647,0.067,1.297,0.122,1.946,0.169l0.975,0.067l0.976,0.053
	c0.65,0.041,1.302,0.055,1.953,0.083c0.651,0.025,1.303,0.029,1.954,0.044c0.651,0.014,1.303,0.003,1.955,0.006
	c0.652,0.006,1.303-0.019,1.955-0.031l0.978-0.022l0.977-0.046l0.977-0.046c0.325-0.014,0.651-0.032,0.976-0.06l1.95-0.147
	c0.649-0.06,1.297-0.136,1.946-0.204c0.324-0.036,0.649-0.065,0.972-0.108l0.969-0.139l0.969-0.139
	c0.322-0.047,0.646-0.088,0.966-0.153l1.925-0.356c0.16-0.032,0.322-0.057,0.481-0.093l0.477-0.111l0.954-0.224l0.954-0.223
	c0.319-0.069,0.629-0.177,0.943-0.263l1.644-0.479l-0.353,60.92c-0.76,0.32-1.546,0.62-2.331,0.897
	c-0.897,0.313-1.801,0.606-2.713,0.867c-0.456,0.132-0.915,0.25-1.373,0.372c-0.461,0.104-0.919,0.229-1.383,0.318
	c-0.463,0.094-0.925,0.195-1.391,0.264l-0.697,0.116l-0.7,0.086c-0.932,0.121-1.867,0.165-2.796,0.17
	c-0.054,0-0.125,0.003-0.166,0.001l-0.18-0.006l-0.359-0.011c-0.24-0.009-0.482-0.014-0.719-0.025
	c-0.47-0.032-0.936-0.051-1.411-0.092c-0.948-0.075-1.896-0.167-2.848-0.273l-2.864-0.32l-1.44-0.151
	c-0.482-0.042-0.964-0.093-1.449-0.127c-0.485-0.033-0.969-0.076-1.458-0.093l-0.731-0.034l-0.735-0.013
	c-0.979-0.021-1.966,0.025-2.953,0.104c-0.247,0.024-0.493,0.058-0.739,0.087c-0.247,0.033-0.494,0.051-0.738,0.103l-0.736,0.134
	l-0.184,0.034l-0.046,0.008l-0.023,0.004l-0.038,0.008l-0.088,0.021l-0.35,0.083l-0.701,0.167l-0.721,0.203
	c-0.486,0.129-0.944,0.293-1.416,0.441c-0.928,0.326-1.849,0.671-2.744,1.073c-0.898,0.396-1.782,0.825-2.646,1.292l-0.645,0.357
	l-0.637,0.372c-0.216,0.129-0.427,0.258-0.638,0.393l-0.761-61.744l-0.761,61.744c-0.211-0.134-0.422-0.263-0.638-0.393
	l-0.637-0.372l-0.645-0.357c-0.864-0.467-1.748-0.896-2.646-1.292c-0.895-0.402-1.816-0.748-2.744-1.073
	c-0.471-0.148-0.929-0.313-1.416-0.441l-0.721-0.203l-0.702-0.167l-0.35-0.083l-0.088-0.021l-0.038-0.008l-0.023-0.004l-0.046-0.008
	l-0.184-0.034l-0.736-0.134c-0.245-0.051-0.492-0.069-0.738-0.103c-0.247-0.029-0.493-0.063-0.739-0.087
	c-0.986-0.078-1.974-0.125-2.953-0.104l-0.734,0.013l-0.731,0.034c-0.489,0.017-0.973,0.06-1.458,0.093
	c-0.485,0.035-0.966,0.085-1.449,0.127l-1.44,0.151l-2.863,0.32c-0.953,0.106-1.9,0.198-2.849,0.273
	c-0.475,0.041-0.94,0.06-1.411,0.092c-0.236,0.012-0.479,0.017-0.718,0.025l-0.36,0.011l-0.18,0.006
	c-0.041,0.002-0.112-0.001-0.166-0.001c-0.929-0.005-1.864-0.049-2.796-0.17l-0.7-0.086l-0.697-0.116
	c-0.466-0.069-0.928-0.17-1.391-0.264c-0.463-0.09-0.922-0.214-1.383-0.318c-0.458-0.122-0.917-0.239-1.373-0.372
	c-0.912-0.26-1.815-0.554-2.713-0.867c-0.784-0.278-1.571-0.577-2.331-0.897L15.794,5.58l1.644,0.479
	c0.315,0.086,0.625,0.194,0.944,0.263l0.955,0.223l0.954,0.224l0.477,0.111c0.159,0.036,0.32,0.061,0.48,0.093l1.926,0.356
	c0.319,0.065,0.644,0.106,0.966,0.153l0.969,0.139l0.968,0.139c0.323,0.043,0.648,0.072,0.973,0.108
	c0.648,0.068,1.296,0.145,1.946,0.204l1.95,0.147c0.325,0.028,0.65,0.046,0.976,0.06l0.977,0.046l0.977,0.046l0.978,0.022
	c0.651,0.012,1.303,0.038,1.954,0.031c0.652-0.003,1.303,0.008,1.955-0.006c0.652-0.016,1.303-0.02,1.955-0.044
	c0.65-0.028,1.302-0.042,1.952-0.083l0.976-0.053l0.975-0.067c0.649-0.047,1.299-0.102,1.946-0.169
	c-0.648,0.06-1.298,0.107-1.948,0.147l-0.975,0.056l-0.976,0.042c-0.65,0.033-1.302,0.04-1.952,0.06
	c-0.651,0.017-1.302,0.014-1.953,0.021c-0.651,0.007-1.302-0.012-1.953-0.016c-0.651-0.001-1.301-0.034-1.952-0.053L33.88,8.226
	l-0.975-0.058L31.931,8.11c-0.325-0.017-0.649-0.039-0.974-0.07l-1.944-0.169c-0.647-0.067-1.292-0.151-1.938-0.226
	c-0.323-0.04-0.646-0.072-0.968-0.119l-0.964-0.15l-0.963-0.15c-0.321-0.05-0.643-0.095-0.961-0.164l-1.913-0.377
	c-0.159-0.033-0.319-0.06-0.477-0.097l-0.473-0.117l-0.946-0.233l-0.946-0.233c-0.316-0.072-0.623-0.183-0.934-0.272l-1.862-0.567
	l-0.236-0.072l-0.001,0.244l-0.355,61.519l-0.002,0.347l0.317,0.142c0.904,0.404,1.799,0.757,2.713,1.093
	c0.914,0.33,1.834,0.641,2.766,0.919c0.465,0.141,0.936,0.267,1.405,0.397c0.474,0.114,0.943,0.246,1.421,0.345
	c0.478,0.103,0.953,0.212,1.437,0.291l0.723,0.128l0.729,0.098c0.972,0.137,1.959,0.197,2.95,0.212c0.066,0,0.115,0.005,0.194,0.002
	l0.18-0.003l0.36-0.007l0.722-0.017c0.488-0.026,0.983-0.042,1.466-0.078c0.968-0.065,1.933-0.148,2.892-0.244l2.868-0.287
	l1.427-0.133c0.475-0.036,0.95-0.08,1.423-0.109c0.473-0.026,0.947-0.063,1.419-0.074l0.708-0.025l0.706-0.003
	c0.941-0.01,1.875,0.046,2.803,0.129c0.231,0.025,0.46,0.06,0.69,0.09c0.229,0.034,0.462,0.052,0.687,0.104l0.68,0.132l0.17,0.033
	L49,70.353l0.088,0.022l0.349,0.087l0.699,0.174l0.664,0.197c0.441,0.121,0.887,0.287,1.331,0.431
	c0.715,0.261,1.427,0.536,2.126,0.841c-0.528-0.104-1.055-0.209-1.587-0.275c-0.279-0.036-0.557-0.086-0.836-0.11l-0.839-0.076
	l-0.419-0.037l-0.42-0.016l-0.839-0.03c-0.275-0.017-0.571-0.001-0.856,0.002l-0.863,0.019c-0.149,0-0.278,0.011-0.407,0.021
	l-0.391,0.031l-0.783,0.06l-0.246,0.021l-0.204,0.026l-0.408,0.052l-0.814,0.105c-1.075,0.161-2.136,0.347-3.177,0.557
	c-0.525,0.1-1.039,0.21-1.555,0.318l-1.54,0.325l-3.054,0.639c-1.012,0.193-2.026,0.397-3.039,0.558
	c-1.013,0.185-2.027,0.308-3.042,0.454l-1.525,0.164l-0.763,0.081l-0.765,0.052l-1.529,0.102c-0.51,0.021-1.021,0.026-1.532,0.041
	c-1.022,0.046-2.043,0-3.066-0.017c-0.513,0-1.022-0.043-1.533-0.078l-1.533-0.104c-1.02-0.097-2.038-0.231-3.058-0.343l-2.187-0.36
	l-1.08-59.411L9.271,75.22l-0.016,0.895l0.889,0.179l3.129,0.632c1.054,0.157,2.105,0.333,3.163,0.473l1.593,0.167
	c0.531,0.055,1.062,0.118,1.596,0.139c1.067,0.057,2.135,0.143,3.205,0.135c0.535,0.005,1.07,0.018,1.605,0.015l1.604-0.048
	l0.802-0.026l0.8-0.055c0.533-0.038,1.067-0.07,1.6-0.113c1.061-0.113,2.127-0.205,3.179-0.356c1.06-0.13,2.104-0.301,3.152-0.461
	l3.111-0.534l1.541-0.267c0.511-0.088,1.024-0.179,1.529-0.255c1.017-0.167,2.023-0.305,3.021-0.417l0.745-0.069l0.372-0.034
	l0.184-0.018l0.048-0.001l0.098-0.004l0.784-0.032l0.392-0.016c0.131-0.006,0.264-0.012,0.376-0.006l0.706,0.015
	c0.237,0.007,0.465,0,0.711,0.024l0.728,0.053l0.363,0.026l0.361,0.046l0.721,0.091c0.24,0.028,0.476,0.082,0.714,0.122
	c0.478,0.075,0.946,0.19,1.414,0.299c0.931,0.238,1.847,0.523,2.725,0.879l0.649,0.279c0.209,0.102,0.424,0.198,0.629,0.303
	c0.204,0.106,0.409,0.211,0.6,0.324c0.1,0.055,0.19,0.11,0.28,0.166c0.046,0.028,0.091,0.056,0.127,0.081l0.058,0.038
	c0.022,0.015,0.021,0.014,0.025,0.018l-0.001,0.002h4.221l-0.001-0.002c0.004-0.003,0.002-0.003,0.024-0.018l0.058-0.038
	c0.037-0.025,0.081-0.053,0.127-0.081c0.09-0.056,0.181-0.111,0.28-0.166c0.191-0.112,0.396-0.217,0.6-0.324
	c0.206-0.105,0.419-0.202,0.629-0.303l0.649-0.279c0.878-0.355,1.794-0.641,2.725-0.879c0.468-0.109,0.937-0.224,1.414-0.299
	c0.238-0.04,0.474-0.093,0.715-0.122l0.721-0.091l0.361-0.046l0.363-0.026l0.728-0.053c0.247-0.025,0.475-0.017,0.712-0.024
	l0.705-0.015c0.112-0.006,0.244,0,0.376,0.006l0.392,0.016l0.784,0.032l0.098,0.004l0.049,0.001h0.003l0.18,0.018l0.372,0.034
	l0.745,0.069c0.998,0.112,2.003,0.25,3.021,0.417c0.505,0.077,1.018,0.167,1.53,0.255l1.541,0.267l3.111,0.534
	c1.048,0.16,2.093,0.332,3.152,0.461c1.052,0.152,2.119,0.244,3.179,0.356c0.533,0.043,1.067,0.075,1.601,0.113l0.8,0.055
	l0.802,0.026l1.604,0.048c0.535,0.002,1.07-0.01,1.605-0.015c1.07,0.008,2.138-0.078,3.205-0.135
	c0.534-0.021,1.065-0.084,1.596-0.139l1.593-0.167c1.058-0.14,2.109-0.316,3.163-0.473l3.129-0.632l0.889-0.179L112.117,75.22z"/>
<g>
	<path fill="#174873" d="M132.019,26.335c0,3.023-2,4.928-4.928,4.928c-3.285,0-5.07-2.262-5.07-5.237v-2.571
		c0-2.428,1.785-5.237,5.07-5.237c1.119,0,2.547,0.333,3.356,2.095v-4.071c0-1.38-1.666-2.189-3.214-2.189
		c-1.951,0-2.928,0.809-2.928,1.714v1.404h-1.737v-1.404c0-1.714,2.309-3.19,4.689-3.19c2.499,0,4.784,1.476,4.784,3.666
		L132.019,26.335z M130.328,23.407c0-2.689-1.428-3.761-3.285-3.761c-2.166,0-3.332,2-3.332,3.809v2.571
		c0,2.309,1.333,3.809,3.428,3.809c2.07,0,3.189-1.381,3.189-3.809V23.407z"/>
	<path fill="#174873" d="M144.852,25.859c0,3.594-1.69,5.403-5.022,5.403c-3.285,0-4.999-2.38-4.999-5.237v-0.833
		c0-0.976,0.548-2.071,1.285-3.094l1.167,0.595c-0.477,0.928-0.738,1.928-0.738,2.499v0.905c0,2.38,0.833,3.713,3.285,3.713
		c2.285,0,3.309-1.095,3.309-4.023v-1.38c0-4.737-5.403-5.808-5.403-10.378v-1.452h1.571v1.452c0,3.761,5.546,5.332,5.546,10.378
		V25.859z"/>
	<path fill="#174873" d="M164.612,25.407c0,2.095-2.118,5.879-4.999,5.879v-1.476c1.833,0,3.309-2.666,3.309-4.38v-1.88
		c0-3.261-1.928-4.023-3.07-4.023c-1.285,0-3.047,0.881-3.047,3.713v2.737h-1.714v-2.737c0-2.833-1.737-3.713-3.022-3.713
		c-1.5,0-3.071,0.762-3.071,4.023v1.928c0,1.666,1.285,4.332,3.309,4.332v1.452c-3.309,0-5.022-3.856-5.022-5.927V23.55
		c0-5.356,2.356-10.974,12.83-10.974v1.476c-5.642,0-9.116,1.904-10.521,4.784l0.953-0.286l1.523-0.333
		c1.476,0,3.094,0.047,3.88,2.833c0.928-2.785,2.618-2.833,3.903-2.833c2.404,0,4.761,1.38,4.761,5.332V25.407z"/>
	<path fill="#174873" d="M177.329,26.264c0,3.047-1.762,4.999-4.976,4.999c-2.928,0-5.022-1.928-5.022-5.022V16.076
		c0-2.237,1.31-3.261,2.952-3.261c1.356,0,2.689,0.595,3.88,0.595c0.976,0,1.643-0.309,2.809-0.833v1.286
		c-1.071,0.643-1.928,0.904-2.976,0.904c-1.189,0-2.189-0.476-3.38-0.476c-1.262-0.047-1.762,0.786-1.762,1.88v4.047
		c1.023-1.571,2.404-2,3.476-2c3.214,0,4.999,2.428,4.999,4.999V26.264z M175.639,23.288c0-2.095-1.095-3.642-3.285-3.642
		c-1.166,0-3.332,0.047-3.332,3.666v2.928c0,1.952,1.047,3.57,3.309,3.57c2.214,0,3.309-1.333,3.309-3.737V23.288z"/>
	<path fill="#174873" d="M189.639,27.049c0,2.976-2.356,4.213-4.999,4.213c-2.904,0-4.999-1.904-4.999-4.451
		c0-2.381,1.023-3.571,2.31-4.57l1.047,1.047c-1.237,1.143-1.666,1.643-1.666,3.547s1.047,2.976,3.309,2.976
		c1.999,0,3.309-1.095,3.309-2.809V16.647c0-1.547-1.095-2.594-2.856-2.594c-1.785,0-3.023,1-3.023,2.618
		c0,0.547,0.096,1.071,0.572,1.809l-1.262,0.952c-0.596-0.809-0.905-1.738-0.905-2.761c0-2.452,1.762-4.094,4.476-4.094
		c2.643,0,4.689,1.428,4.689,4.07V27.049z"/>
	<path fill="#174873" d="M203.282,26.026c0,3.475-1.738,5.237-4.714,5.237c-3.284,0-5.26-2.023-5.26-4.904v-1.167
		c0-1.095,0.999-2.499,1.713-3.094l0.953,0.905c-0.69,0.595-0.953,1.428-0.953,2.189v1.167c0,2,1.262,3.452,3.547,3.452
		c2.452,0,3.023-1.666,3.023-3.856V15.243c0-0.643-0.81-1.262-2.047-1.262c-1.096,0-1.738,0.619-1.738,1.262v4.499h-1.309v-4.499
		c0-0.881-0.548-1.286-1.477-1.286c-0.951,0-1.214,1.31-1.999,1.31c-0.619,0-1.237-0.476-1.666-0.976v-1.619
		c0.404,0.405,1.237,0.952,1.714,0.952c0.523,0,1.047-0.976,1.809-0.976c1.19,0,1.904,0.5,2.31,1.238
		c0.714-0.738,1.57-1.238,2.476-1.238c1.714,0,3.618,1.047,3.618,2.595V26.026z"/>
	<path fill="#174873" d="M228.445,19.575c0,2.047-1.666,5.641-3.761,6.832l-1.071-0.976c1.881-1.404,3.095-4.261,3.095-5.975v-1.523
		c0-2.452-1.19-3.761-2.642-3.761c-2.333,0-2.81,1.523-2.81,3.428v3.785h-1.571v-3.785c0-1.856-0.404-3.546-2.499-3.546
		c-1.904,0-2.499,1.761-2.499,3.475v3.856h-1.595v-3.856c0-1.714-0.119-3.356-2.737-3.356c-1.904,0-2.69,1.857-2.69,4.189
		l0.024,1.667c-0.048,5.57,5.998,9.331,13.115,9.331h1.762v1.643h-1.714c-9.593,0-14.782-5.499-14.878-10.974l-0.023-1.738
		c0-3.19,1.333-5.594,4.404-5.594c1.642,0,2.666,0.452,3.689,2.642c0.666-2.19,1.595-2.761,3.142-2.761
		c1.452,0,2.476,0.571,3.237,2.642c0.929-2.071,2.309-2.523,3.618-2.523c2.452,0,4.403,1.833,4.403,5.118V19.575z"/>
	<path fill="#174873" d="M240.759,23.883c-0.024,3.19-0.857,6.737-3.689,7.379l-0.144-1.452c1.167,0,2.143-2.143,2.143-5.855v-4.523
		c0-3.38-0.666-5.379-3.213-5.379c-2.785,0-3.404,2.047-3.404,5.451v4.452c0,3.642,0.666,5.855,1.737,5.855l-0.023,1.452
		c-2.88-0.548-3.404-4.285-3.404-7.308v-4.404c0-3.213,0.857-6.975,4.999-6.975c4.237,0,5.022,3.213,5.022,6.855L240.759,23.883z"/>
	<path fill="#174873" d="M254.092,25.716c0,3.19-2.095,5.546-4.999,5.546c-2.928,0-4.999-1.809-4.999-5.689V12.577h1.69v12.997
		c0,3.095,1.381,4.237,3.309,4.237c2.19,0,3.309-1.738,3.309-4.261v-0.69c0-2.571-2.951-4.213-2.951-6.046
		c0-0.69,0.118-1.31,0.618-2.023l1.714,0.476c-0.476,0.619-0.737,0.904-0.737,1.547c0,1.809,3.047,3.166,3.047,5.784V25.716z"/>
	<path fill="#174873" d="M271.664,25.716c0,3.19-2.095,5.546-4.999,5.546c-2.928,0-4.999-1.809-4.999-5.689V12.577h1.69v12.997
		c0,3.095,1.381,4.237,3.309,4.237c2.19,0,3.309-1.738,3.309-4.261v-0.69c0-2.571-2.951-4.213-2.951-6.046
		c0-0.69,0.118-1.31,0.618-2.023l1.714,0.476c-0.476,0.619-0.737,0.904-0.737,1.547c0,1.809,3.047,3.166,3.047,5.784V25.716z"/>
	<path fill="#174873" d="M284.116,25.859c0,3.594-1.69,5.403-5.022,5.403c-3.285,0-4.999-2.38-4.999-5.237v-0.833
		c0-0.976,0.548-2.071,1.285-3.094l1.167,0.595c-0.477,0.928-0.738,1.928-0.738,2.499v0.905c0,2.38,0.833,3.713,3.285,3.713
		c2.285,0,3.309-1.095,3.309-4.023v-1.38c0-4.737-5.403-5.808-5.403-10.378v-1.452h1.571v1.452c0,3.761,5.546,5.332,5.546,10.378
		V25.859z"/>
	<path fill="#174873" d="M294.094,16.48c0,0.881-0.69,2.047-1.666,2.69c3.451,0,5.261,2.404,5.261,4.927v2
		c0,3.452-2.262,5.166-5.261,5.166c-2.928,0-5.213-1.714-5.213-5.166v-1.928c0-2.166,0.976-3.309,2.213-4.046
		c-2.451-0.238-3.594-1.5-3.594-3.69v-0.571c0-2.071,1.714-3.285,4.094-3.285c3,0,4.166,1.333,4.166,3.285V16.48z M292.499,15.909
		c0-1.238-1.404-1.856-2.547-1.856c-1.548,0-2.547,0.619-2.547,1.88v0.928c0,1.19,0.856,2.071,2.595,2.071
		c1.118,0,2.499-0.643,2.499-2.071V15.909z M288.881,25.835c0,2.666,1.595,3.975,3.547,3.975c2.023,0,3.522-1.404,3.522-4.118
		v-1.119c0-2.713-1.499-3.952-3.522-3.952c-1.952,0-3.547,1.024-3.547,3.761V25.835z"/>
	<path fill="#174873" d="M316.044,19.86c0-3.332-0.19-5.808-3.022-5.808c-2.047,0-3.047,1.237-3.047,3.642v7.498h-1.69v-7.498
		c0-2.547-1-3.642-3.07-3.642c-2.643,0-3.047,2.476-3.047,5.927v3.19c0,3.189,0.904,6.641,3.309,6.641v1.452
		c-3.999,0-5.022-4.38-5.022-8.046v-3.237c0-3.642,0.571-7.403,4.784-7.403c2.023,0,3.071,1,3.833,2.713
		c0.643-1.714,1.761-2.713,3.951-2.713c4.022,0,4.784,3.689,4.784,7.212l-0.023,3.428c0,3.476-1.19,8.046-4.976,8.046v-1.452
		c2.19,0,3.237-3.38,3.237-6.713V19.86z"/>
	<path fill="#174873" d="M331.855,25.907c-0.048,2.333-1.785,5.356-5.832,5.356c-3.689,0-5.761-3.237-5.761-5.356v-1.452
		c0-2.833,1.952-5.522,6.213-5.665l1.214-2.452c0-0.833-0.952-2.285-2.285-2.285c-1.643,0-2.428,0.714-2.428,1.69v1.571h-1.523
		v-1.571c0-1.857,1.952-3.166,3.951-3.166c2.571,0,3.809,1.452,3.809,3.761l-1.189,2.594c1.666,0.524,3.903,2.357,3.855,5.261
		L331.855,25.907z M330.142,24.169c0-1.643-1.167-3.904-3.523-3.904h-0.833c-2.38,0-3.832,1.643-3.832,4.261v1.166
		c0,1.928,1.333,4.142,4.142,4.142c2.785,0,4.047-1.738,4.047-4.142V24.169z"/>
	<path fill="#174873" d="M344.236,25.859c0,3.594-1.69,5.403-5.022,5.403c-3.285,0-4.999-2.38-4.999-5.237v-0.833
		c0-0.976,0.548-2.071,1.285-3.094l1.167,0.595c-0.477,0.928-0.738,1.928-0.738,2.499v0.905c0,2.38,0.833,3.713,3.285,3.713
		c2.285,0,3.309-1.095,3.309-4.023v-1.38c0-4.737-5.403-5.808-5.403-10.378v-1.452h1.571v1.452c0,3.761,5.546,5.332,5.546,10.378
		V25.859z"/>
	<path fill="#174873" d="M359.236,31.263h-2.189c-7.117,0-10.379-5.356-10.379-10.712v-1.476c0-2.476,0.429-6.499,4.404-6.499
		c1.88,0,2.666,0.714,3.499,2.952c0.785-2.309,1.976-2.952,3.832-2.952c3.618,0,4.618,3.118,4.618,5.832v2.095
		c0,2.737-1.357,5.76-4.618,5.76c-3.095,0-4.642-2.523-4.642-5.903v-1.904c0-2.404-0.714-4.403-2.689-4.403
		c-2.595,0-2.69,3.285-2.69,5.022v1.404c0,5.284,3.071,9.141,8.665,9.141h2.189V31.263z M361.283,18.409
		c0-2.047-0.119-4.356-2.88-4.356c-2.499,0-2.952,1.523-2.952,4.356v2.023c0,3.023,0.905,4.38,2.952,4.38
		c2.714,0,2.88-2.57,2.88-4.38V18.409z"/>
	<path fill="#174873" d="M381.426,19.86c0-3.332-0.19-5.808-3.022-5.808c-2.048,0-3.047,1.237-3.047,3.642v7.498h-1.69v-7.498
		c0-2.547-1-3.642-3.07-3.642c-2.643,0-3.047,2.476-3.047,5.927v3.19c0,3.189,0.904,6.641,3.309,6.641v1.452
		c-3.999,0-5.022-4.38-5.022-8.046v-3.237c0-3.642,0.571-7.403,4.784-7.403c2.023,0,3.07,1,3.832,2.713
		c0.644-1.714,1.762-2.713,3.952-2.713c4.022,0,4.784,3.689,4.784,7.212l-0.023,3.428c0,3.476-1.19,8.046-4.976,8.046v-1.452
		c2.19,0,3.237-3.38,3.237-6.713V19.86z"/>
	<path fill="#174873" d="M395.643,27.049c0,2.976-2.356,4.213-4.999,4.213c-2.904,0-4.999-1.904-4.999-4.451
		c0-2.381,1.023-3.571,2.31-4.57l1.047,1.047c-1.237,1.143-1.666,1.643-1.666,3.547s1.047,2.976,3.309,2.976
		c1.999,0,3.309-1.095,3.309-2.809V16.647c0-1.547-1.095-2.594-2.856-2.594c-1.785,0-3.023,1-3.023,2.618
		c0,0.547,0.096,1.071,0.572,1.809l-1.262,0.952c-0.596-0.809-0.905-1.738-0.905-2.761c0-2.452,1.762-4.094,4.476-4.094
		c2.643,0,4.689,1.428,4.689,4.07V27.049z"/>
	<path fill="#174873" d="M401.621,12.577c0,2.047,3.428,1.761,3.428,3.642c0,0.976-0.19,1.428-0.643,2.309
		c2.618,0.619,3.928,3.143,3.928,5.07l0.023,2.737c0,2-1.737,4.928-5.022,4.928s-4.999-2.666-4.999-4.951v-2.69
		c0-2.166,1.262-4.618,4.476-5.094c0.499-1.166,0.523-1.547,0.523-2.261c-0.048-1.214-3.428-1.261-3.428-3.689H401.621z
		 M400.05,26.026c0,1.976,1,3.785,3.285,3.785c2.404,0,3.309-2.023,3.309-3.642v-2.476c0-1.69-1.071-3.785-3.309-3.785
		c-2.381,0-3.285,1.762-3.285,3.856V26.026z"/>
	<path fill="#174873" d="M428.117,25.407c0,2.095-2.118,5.879-4.999,5.879v-1.476c1.833,0,3.31-2.666,3.31-4.38v-1.88
		c0-3.261-1.929-4.023-3.071-4.023c-1.285,0-3.047,0.881-3.047,3.713v2.737h-1.714v-2.737c0-2.833-1.737-3.713-3.023-3.713
		c-1.499,0-3.07,0.762-3.07,4.023v1.928c0,1.666,1.285,4.332,3.309,4.332v1.452c-3.309,0-5.022-3.856-5.022-5.927V23.55
		c0-5.356,2.356-10.974,12.83-10.974v1.476c-5.642,0-9.116,1.904-10.521,4.784l0.951-0.286l1.523-0.333
		c1.477,0,3.095,0.047,3.881,2.833c0.928-2.785,2.618-2.833,3.903-2.833c2.404,0,4.761,1.38,4.761,5.332V25.407z"/>
	<path fill="#174873" d="M440.453,23.883c-0.024,3.19-0.857,6.737-3.689,7.379l-0.144-1.452c1.167,0,2.143-2.143,2.143-5.855v-4.523
		c0-3.38-0.666-5.379-3.214-5.379c-2.784,0-3.403,2.047-3.403,5.451v4.452c0,3.642,0.666,5.855,1.737,5.855l-0.023,1.452
		c-2.881-0.548-3.404-4.285-3.404-7.308v-4.404c0-3.213,0.857-6.975,4.999-6.975c4.237,0,5.022,3.213,5.022,6.855L440.453,23.883z"
		/>
	<path fill="#174873" d="M453.405,26.954c0,2.261-1.714,4.309-4.999,4.309c-3.309,0-4.999-2.238-4.999-4.237v-0.952
		c0-0.881,0.5-2.142,1.69-2.904l1.333,0.809c-1,0.786-1.333,1.214-1.333,2.19v0.738c0,1.571,1.095,2.904,3.309,2.904
		c2.262,0,3.309-1.119,3.309-2.856v-2c0-1.143-0.476-2.976-1.928-2.976h-1.595v-1.476h1.595c1.618,0,1.809-2.238,1.809-3.261v-0.547
		c0-1.286-0.928-2.642-3.047-2.642c-1.833,0-2.951,1.38-2.951,2.333v0.381c0,0.952,0.238,1.357,0.714,2.023l-1.404,0.643
		c-0.643-0.833-1.023-1.643-1.023-2.571v-0.595c0-1.738,1.928-3.689,4.665-3.689c3.189,0,4.737,2,4.737,3.999v0.809
		c0,0.857,0.119,2.643-2.19,3.833c2.31,1.143,2.31,2.595,2.31,3.737V26.954z"/>
	<path fill="#174873" d="M465.739,23.883c-0.024,3.19-0.857,6.737-3.689,7.379l-0.144-1.452c1.167,0,2.143-2.143,2.143-5.855v-4.523
		c0-3.38-0.666-5.379-3.213-5.379c-2.785,0-3.404,2.047-3.404,5.451v4.452c0,3.642,0.666,5.855,1.737,5.855l-0.023,1.452
		c-2.88-0.548-3.404-4.285-3.404-7.308v-4.404c0-3.213,0.857-6.975,4.999-6.975c4.237,0,5.022,3.213,5.022,6.855L465.739,23.883z"/>
	<path fill="#174873" d="M483.453,26.359c0,2.69-1.833,4.904-4.999,4.904c-3.047,0-4.999-2.238-4.999-4.166v-1.071
		c0-1.119,0.81-2.238,1.69-2.833l0.904,1.023c-0.643,0.5-0.904,1.333-0.904,2.047v0.571c0,1.428,1.071,2.976,3.309,2.976
		c2.452,0,3.309-1.5,3.309-3.452v-1.238c0-2-1.143-3.88-2.737-3.88h-2.38v-1.452h2.285c1.261,0,2.356-0.785,2.356-2.333v-0.881
		c0-1.238-1.19-2.523-2.31-2.523v-1.476c1.643,0,3.999,1.69,3.999,3.999V17.1c0,1.904-0.976,2.856-2.499,3.404
		c2.309,0.714,2.976,2.428,2.976,4.618V26.359z"/>
	<path fill="#174873" d="M501.833,19.86c0-3.332-0.19-5.808-3.022-5.808c-2.047,0-3.047,1.237-3.047,3.642v7.498h-1.69v-7.498
		c0-2.547-1-3.642-3.07-3.642c-2.643,0-3.047,2.476-3.047,5.927v3.19c0,3.189,0.904,6.641,3.309,6.641v1.452
		c-3.999,0-5.022-4.38-5.022-8.046v-3.237c0-3.642,0.571-7.403,4.784-7.403c2.023,0,3.071,1,3.833,2.713
		c0.643-1.714,1.761-2.713,3.951-2.713c4.022,0,4.784,3.689,4.784,7.212l-0.023,3.428c0,3.476-1.19,8.046-4.976,8.046v-1.452
		c2.19,0,3.237-3.38,3.237-6.713V19.86z"/>
	<path fill="#174873" d="M528.666,19.575c0,2.047-1.667,5.641-3.762,6.832l-1.071-0.976c1.881-1.404,3.095-4.261,3.095-5.975v-1.523
		c0-2.452-1.19-3.761-2.643-3.761c-2.332,0-2.809,1.523-2.809,3.428v3.785h-1.57v-3.785c0-1.856-0.405-3.546-2.5-3.546
		c-1.904,0-2.499,1.761-2.499,3.475v3.856h-1.595v-3.856c0-1.714-0.119-3.356-2.738-3.356c-1.904,0-2.689,1.857-2.689,4.189
		l0.023,1.667c-0.047,5.57,5.999,9.331,13.116,9.331h1.762v1.643h-1.714c-9.593,0-14.782-5.499-14.877-10.974l-0.024-1.738
		c0-3.19,1.333-5.594,4.403-5.594c1.643,0,2.666,0.452,3.69,2.642c0.666-2.19,1.595-2.761,3.142-2.761
		c1.452,0,2.476,0.571,3.237,2.642c0.929-2.071,2.31-2.523,3.618-2.523c2.452,0,4.404,1.833,4.404,5.118V19.575z"/>
	<path fill="#174873" d="M540.979,27.049c0,2.976-2.356,4.213-4.999,4.213c-2.904,0-4.999-1.904-4.999-4.451
		c0-2.381,1.023-3.571,2.31-4.57l1.047,1.047c-1.237,1.143-1.666,1.643-1.666,3.547s1.047,2.976,3.309,2.976
		c1.999,0,3.309-1.095,3.309-2.809V16.647c0-1.547-1.095-2.594-2.856-2.594c-1.785,0-3.023,1-3.023,2.618
		c0,0.547,0.096,1.071,0.572,1.809l-1.262,0.952c-0.596-0.809-0.905-1.738-0.905-2.761c0-2.452,1.762-4.094,4.476-4.094
		c2.643,0,4.689,1.428,4.689,4.07V27.049z"/>
	<path fill="#174873" d="M543.671,15.386h3.666v-0.024v-2.785h1.571v2.785v0.024h4.284v1.476h-4.142
		c0.785,3.809,4.642,3.928,4.642,8.236v1.333c0,2.618-1.737,4.832-4.999,4.832c-3.309,0-5.022-2.833-5.022-4.761v-1.523
		c0-1.238,1.5-2.833,2.404-3.428l0.881,1.023c-0.667,0.5-1.571,1.547-1.571,2.404v1.452c0,1.404,1.119,3.38,3.309,3.38
		c2.452,0,3.214-1.381,3.262-3.38l0.023-1.333c0-3.642-3.785-4.261-4.522-8.236h-3.785V15.386z"/>
	<path fill="#174873" d="M565.741,23.883c-0.024,3.19-0.857,6.737-3.689,7.379l-0.144-1.452c1.167,0,2.143-2.143,2.143-5.855v-4.523
		c0-3.38-0.666-5.379-3.213-5.379c-2.785,0-3.404,2.047-3.404,5.451v4.452c0,3.642,0.666,5.855,1.737,5.855l-0.023,1.452
		c-2.88-0.548-3.404-4.285-3.404-7.308v-4.404c0-3.213,0.857-6.975,4.999-6.975c4.237,0,5.022,3.213,5.022,6.855L565.741,23.883z"/>
	<path fill="#E79800" d="M122.497,65.691V49.147h1.547l5.809,9.498l5.831-9.498h1.5v16.544h-1.381v-14.14l-5.95,9.712h-0.024
		l-5.903-9.712v14.14H122.497z"/>
	<path fill="#E79800" d="M139.878,57.003c0.452-0.714,0.952-1.262,1.476-1.571c0.738-0.404,1.5-0.619,2.5-0.619
		c1.547,0,2.643,0.381,3.166,1.095c0.5,0.714,0.833,1.666,0.833,2.594v7.189h-1.381v-0.452c-0.69,0.309-1.571,0.452-2.618,0.452
		c-1.166,0-2.333-0.333-2.976-0.881c-0.69-0.547-1.048-1.381-1.048-2.19c0-0.786,0.238-1.523,0.738-2.142
		c0.452-0.595,1.547-0.905,3.285-0.905c0.952,0,1.643-0.167,1.999-0.452c0.357-0.262,0.619-0.714,0.619-1.167
		c0-0.476-0.262-0.857-0.619-1.238c-0.381-0.333-1.095-0.5-1.999-0.5c-0.477,0-1.095,0.048-1.523,0.262
		c-0.404,0.167-0.81,0.547-0.977,1L139.878,57.003z M146.472,60.192c-0.619,0.524-1.499,0.762-2.57,0.762
		c-0.905,0-1.571,0.119-1.976,0.381c-0.453,0.31-0.69,0.714-0.69,1.286c0,1.19,0.833,1.667,2.618,1.667
		c0.619,0,1.237-0.072,1.714-0.262c0.571-0.214,0.904-0.69,0.904-1.404V60.192z"/>
	<path fill="#E79800" d="M150.164,65.691V54.813h1.381v1.404c0.856-0.976,1.856-1.404,3.095-1.404c1.404,0,2.428,0.405,3.213,1.286
		l-0.785,1.047c-0.643-0.595-1.429-0.928-2.428-0.928c-0.977,0-1.714,0.333-2.262,0.928c-0.571,0.619-0.833,1.667-0.833,3.119v5.427
		H150.164z"/>
	<path fill="#E79800" d="M160.116,65.691V54.813h1.404v1.404c0.833-0.928,1.881-1.404,3.095-1.404c1.285,0,2.428,0.524,3.237,1.357
		c0.81,0.857,1.285,2.285,1.285,4.094v5.427h-1.404v-5.427c0-1.357-0.31-2.523-0.856-3.119c-0.5-0.523-1.357-0.928-2.262-0.928
		c-0.976,0-1.762,0.333-2.262,0.928c-0.5,0.571-0.833,1.762-0.833,3.119v5.427H160.116z"/>
	<path fill="#E79800" d="M179.639,63.573c-0.976,1.404-2.261,2.119-3.855,2.119c-1.333,0-2.356-0.452-3.237-1.333
		c-0.833-0.833-1.286-2.238-1.286-4.094c0-1.809,0.429-3.237,1.262-4.094c0.857-0.857,1.904-1.357,3.262-1.357
		c1.285,0,2.38,0.5,3.261,1.357c0.762,0.785,1.214,2.261,1.214,4.237h-7.569c0.023,2.666,1.19,3.88,3.095,3.88
		c1.143,0,1.976-0.453,2.547-1.238L179.639,63.573z M178.806,59.026c-0.071-0.976-0.356-1.667-0.856-2.071
		c-0.523-0.476-1.19-0.738-2.166-0.738c-0.929,0-1.666,0.238-2.19,0.738c-0.452,0.453-0.785,1.095-0.856,2.071H178.806z"/>
	<path fill="#E79800" d="M191.425,54.813v10.878h-1.381v-1.381c-0.833,0.929-1.856,1.381-3.118,1.381s-2.31-0.476-3.214-1.333
		c-0.881-0.857-1.31-2.238-1.31-4.094v-5.451h1.429v5.451c0,1.357,0.357,2.5,0.833,3.094c0.5,0.667,1.31,0.929,2.262,0.929
		c0.904,0,1.714-0.286,2.261-0.929c0.548-0.619,0.857-1.69,0.857-3.094v-5.451H191.425z"/>
	<path fill="#E79800" d="M194.808,65.691V49.147h1.333v16.544H194.808z"/>
	<path fill="#E79800" d="M201.093,51.028c0.429,0,0.667,0.333,0.667,0.69c0,0.452-0.238,0.69-0.667,0.69
		c-0.452,0-0.666-0.238-0.666-0.69C200.427,51.361,200.641,51.028,201.093,51.028z M200.427,65.691V54.813h1.333v10.878H200.427z"/>
	<path fill="#E79800" d="M216.734,65.691c-1.904,0-3.547-0.857-4.642-2.262c-1.143-1.5-1.737-3.57-1.737-5.998
		c0-2.309,0.595-4.285,1.737-5.88s2.643-2.404,4.451-2.404c1.523,0,2.714,0.357,3.595,0.952c0.856,0.595,1.476,1.262,1.928,2.167
		l-1.189,0.619c-0.929-1.595-2.262-2.38-4.143-2.38c-1.523,0-2.785,0.786-3.642,2.143c-0.881,1.404-1.31,2.975-1.31,4.785
		c0,1.69,0.452,3.38,1.31,4.737c0.856,1.38,2.118,2.119,3.642,2.119c1.071,0,1.904-0.119,2.595-0.453
		c0.619-0.286,1.119-0.809,1.595-1.69l1.119,0.476c-0.477,0.952-1.071,1.738-1.785,2.261
		C219.496,65.43,218.306,65.691,216.734,65.691z"/>
	<path fill="#E79800" d="M224.713,60.264c0-1.809,0.428-3.19,1.285-4.094c0.856-0.857,1.904-1.357,3.237-1.357
		c1.285,0,2.38,0.476,3.261,1.357c0.833,0.833,1.214,2.285,1.214,4.094c0,1.856-0.404,3.213-1.214,4.07
		c-0.881,0.905-1.976,1.357-3.261,1.357c-1.333,0-2.356-0.452-3.237-1.333C225.165,63.525,224.713,62.121,224.713,60.264z
		 M229.235,56.217c-0.952,0-1.785,0.333-2.285,0.928c-0.477,0.571-0.81,1.762-0.81,3.119c0,1.404,0.333,2.5,0.81,3.094
		c0.5,0.667,1.309,0.929,2.285,0.929c0.904,0,1.737-0.262,2.261-0.929c0.548-0.619,0.834-1.69,0.834-3.094
		c0-1.357-0.286-2.523-0.834-3.119C230.973,56.574,230.14,56.217,229.235,56.217z"/>
	<path fill="#E79800" d="M236.022,65.691V54.813h1.381v1.404c0.856-0.928,1.904-1.404,3.118-1.404c1.666,0,2.904,0.857,3.785,2.119
		c0.881-1.262,2.07-2.119,3.784-2.119c1.333,0,2.429,0.524,3.237,1.357c0.833,0.881,1.238,2.285,1.238,4.094v5.427h-1.357v-5.427
		c0-1.452-0.285-2.547-0.785-3.119c-0.595-0.595-1.356-0.928-2.333-0.928c-0.928,0-1.666,0.381-2.237,0.928
		c-0.595,0.619-0.833,1.667-0.833,3.119v5.427h-1.381v-5.427c0-1.381-0.31-2.523-0.856-3.119c-0.5-0.571-1.31-0.928-2.262-0.928
		c-1,0-1.714,0.333-2.262,0.928c-0.571,0.619-0.856,1.643-0.856,3.119v5.427H236.022z"/>
	<path fill="#E79800" d="M254.903,65.691V54.813h1.381v1.404c0.856-0.928,1.904-1.404,3.118-1.404c1.666,0,2.904,0.857,3.785,2.119
		c0.881-1.262,2.07-2.119,3.784-2.119c1.333,0,2.429,0.524,3.237,1.357c0.833,0.881,1.238,2.285,1.238,4.094v5.427h-1.357v-5.427
		c0-1.452-0.285-2.547-0.785-3.119c-0.595-0.595-1.356-0.928-2.333-0.928c-0.928,0-1.666,0.381-2.237,0.928
		c-0.595,0.619-0.833,1.667-0.833,3.119v5.427h-1.381v-5.427c0-1.381-0.31-2.523-0.856-3.119c-0.5-0.571-1.31-0.928-2.262-0.928
		c-1,0-1.714,0.333-2.262,0.928c-0.571,0.619-0.856,1.643-0.856,3.119v5.427H254.903z"/>
	<path fill="#E79800" d="M282.641,54.813v10.878h-1.381v-1.381c-0.833,0.929-1.856,1.381-3.118,1.381s-2.31-0.476-3.214-1.333
		c-0.881-0.857-1.309-2.238-1.309-4.094v-5.451h1.428v5.451c0,1.357,0.357,2.5,0.833,3.094c0.5,0.667,1.31,0.929,2.262,0.929
		c0.904,0,1.714-0.286,2.261-0.929c0.548-0.619,0.857-1.69,0.857-3.094v-5.451H282.641z"/>
	<path fill="#E79800" d="M285.095,65.691V54.813h1.404v1.404c0.833-0.928,1.881-1.404,3.095-1.404c1.285,0,2.428,0.524,3.237,1.357
		c0.81,0.857,1.285,2.285,1.285,4.094v5.427h-1.404v-5.427c0-1.357-0.31-2.523-0.856-3.119c-0.5-0.523-1.357-0.928-2.262-0.928
		c-0.976,0-1.762,0.333-2.262,0.928c-0.5,0.571-0.833,1.762-0.833,3.119v5.427H285.095z"/>
	<path fill="#E79800" d="M297.999,51.028c0.429,0,0.667,0.333,0.667,0.69c0,0.452-0.238,0.69-0.667,0.69
		c-0.452,0-0.666-0.238-0.666-0.69C297.333,51.361,297.547,51.028,297.999,51.028z M297.333,65.691V54.813h1.333v10.878H297.333z"/>
	<path fill="#E79800" d="M305.166,51.028v3.785h2.856v1.404h-2.856v5.927c0,0.786,0.119,1.381,0.381,1.69
		c0.285,0.31,0.714,0.453,1.214,0.453c0.476,0,0.904-0.048,1.262-0.143v1.262c-0.334,0.214-0.762,0.286-1.262,0.286
		c-0.857,0-1.643-0.214-2.19-0.786c-0.571-0.571-0.737-1.476-0.737-2.761v-5.927h-1.976v-1.404h1.976v-3.785H305.166z"/>
	<path fill="#E79800" d="M310.285,54.813h1.381l3.951,9.498l3.952-9.498h1.356l-5.57,12.925c-1.047,2.452-2.332,3.642-3.547,3.642
		h-1.643v-1.143h1.643c0.619,0,1.357-0.738,2.119-2.261l1.023-2.047L310.285,54.813z"/>
	<path fill="#E79800" d="M334.76,65.691c-1.904,0-3.547-0.857-4.642-2.262c-1.143-1.5-1.737-3.57-1.737-5.998
		c0-2.309,0.595-4.285,1.737-5.88s2.643-2.404,4.451-2.404c1.523,0,2.714,0.357,3.595,0.952c0.856,0.595,1.476,1.262,1.928,2.167
		l-1.189,0.619c-0.929-1.595-2.262-2.38-4.143-2.38c-1.523,0-2.785,0.786-3.642,2.143c-0.881,1.404-1.31,2.975-1.31,4.785
		c0,1.69,0.452,3.38,1.31,4.737c0.856,1.38,2.118,2.119,3.642,2.119c1.071,0,1.904-0.119,2.595-0.453
		c0.619-0.286,1.119-0.809,1.595-1.69l1.119,0.476c-0.477,0.952-1.071,1.738-1.785,2.261
		C337.521,65.43,336.331,65.691,334.76,65.691z"/>
	<path fill="#E79800" d="M342.738,60.264c0-1.809,0.429-3.19,1.286-4.094c0.856-0.857,1.904-1.357,3.237-1.357
		c1.285,0,2.38,0.476,3.261,1.357c0.833,0.833,1.214,2.285,1.214,4.094c0,1.856-0.404,3.213-1.214,4.07
		c-0.881,0.905-1.976,1.357-3.261,1.357c-1.333,0-2.356-0.452-3.237-1.333C343.191,63.525,342.738,62.121,342.738,60.264z
		 M347.262,56.217c-0.952,0-1.785,0.333-2.285,0.928c-0.477,0.571-0.81,1.762-0.81,3.119c0,1.404,0.333,2.5,0.81,3.094
		c0.5,0.667,1.309,0.929,2.285,0.929c0.904,0,1.737-0.262,2.261-0.929c0.548-0.619,0.833-1.69,0.833-3.094
		c0-1.357-0.285-2.523-0.833-3.119C348.999,56.574,348.166,56.217,347.262,56.217z"/>
	<path fill="#E79800" d="M354.977,65.691V49.147h1.333v16.544H354.977z"/>
	<path fill="#E79800" d="M360.596,65.691V49.147h1.333v16.544H360.596z"/>
	<path fill="#E79800" d="M373.498,63.573c-0.976,1.404-2.261,2.119-3.855,2.119c-1.333,0-2.356-0.452-3.237-1.333
		c-0.833-0.833-1.286-2.238-1.286-4.094c0-1.809,0.429-3.237,1.262-4.094c0.857-0.857,1.904-1.357,3.262-1.357
		c1.285,0,2.38,0.5,3.261,1.357c0.762,0.785,1.214,2.261,1.214,4.237h-7.569c0.023,2.666,1.19,3.88,3.095,3.88
		c1.143,0,1.976-0.453,2.547-1.238L373.498,63.573z M372.665,59.026c-0.071-0.976-0.356-1.667-0.856-2.071
		c-0.523-0.476-1.19-0.738-2.166-0.738c-0.929,0-1.666,0.238-2.19,0.738c-0.452,0.453-0.785,1.095-0.856,2.071H372.665z"/>
	<path fill="#E79800" d="M378.811,69.786c2.809,0,5.07-0.429,5.07-2.666v-2.809c-0.834,0.929-1.81,1.381-3.095,1.381
		c-1.333,0-2.356-0.452-3.237-1.333c-0.833-0.833-1.285-2.238-1.285-4.094c0-1.809,0.428-3.19,1.285-4.094
		c0.856-0.857,1.904-1.357,3.237-1.357c1.285,0,2.261,0.476,3.095,1.428v-1.428h1.38v12.235c0,3.714-3.618,4.118-6.45,3.999V69.786z
		 M380.786,56.217c-0.952,0-1.785,0.333-2.285,0.928c-0.477,0.571-0.81,1.762-0.81,3.119c0,1.404,0.333,2.5,0.81,3.094
		c0.5,0.667,1.309,0.929,2.285,0.929c0.904,0,1.737-0.262,2.261-0.929c0.548-0.619,0.834-1.69,0.834-3.094
		c0-1.357-0.286-2.523-0.834-3.119C382.523,56.574,381.69,56.217,380.786,56.217z"/>
	<path fill="#E79800" d="M396.189,63.573c-0.976,1.404-2.261,2.119-3.855,2.119c-1.333,0-2.356-0.452-3.237-1.333
		c-0.833-0.833-1.286-2.238-1.286-4.094c0-1.809,0.429-3.237,1.262-4.094c0.857-0.857,1.904-1.357,3.262-1.357
		c1.285,0,2.38,0.5,3.261,1.357c0.762,0.785,1.214,2.261,1.214,4.237h-7.569c0.023,2.666,1.19,3.88,3.095,3.88
		c1.143,0,1.976-0.453,2.547-1.238L396.189,63.573z M395.356,59.026c-0.071-0.976-0.356-1.667-0.856-2.071
		c-0.523-0.476-1.19-0.738-2.166-0.738c-0.929,0-1.666,0.238-2.19,0.738c-0.452,0.453-0.785,1.095-0.856,2.071H395.356z"/>
</g>
</svg>
